Results
version=1
nRows=8
nColumns=49
inDegrees=yes
endheader
time	/jointset/bb/crank_angle/value	/jointset/bb/crank_angle/speed	/jointset/spindle/pedal_angle_r/value	/jointset/spindle/pedal_angle_r/speed	/jointset/ground_pelvis/pelvis_tilt/value	/jointset/ground_pelvis/pelvis_tilt/speed	/jointset/ground_pelvis/pelvis_list/value	/jointset/ground_pelvis/pelvis_list/speed	/jointset/ground_pelvis/pelvis_rotation/value	/jointset/ground_pelvis/pelvis_rotation/speed	/jointset/ground_pelvis/pelvis_tx/value	/jointset/ground_pelvis/pelvis_tx/speed	/jointset/ground_pelvis/pelvis_ty/value	/jointset/ground_pelvis/pelvis_ty/speed	/jointset/ground_pelvis/pelvis_tz/value	/jointset/ground_pelvis/pelvis_tz/speed	/jointset/hip_r/hip_angle_r/value	/jointset/hip_r/hip_angle_r/speed	/jointset/hip_r/hip_adduction_r/value	/jointset/hip_r/hip_adduction_r/speed	/jointset/hip_r/hip_rotation_r/value	/jointset/hip_r/hip_rotation_r/speed	/jointset/knee_r/knee_angle_r/value	/jointset/knee_r/knee_angle_r/speed	/jointset/knee_r/tib_tx_r/value	/jointset/knee_r/tib_tx_r/speed	/jointset/knee_r/tib_ty_r/value	/jointset/knee_r/tib_ty_r/speed	/jointset/tib_pat_r/pat_angle_r/value	/jointset/tib_pat_r/pat_angle_r/speed	/jointset/tib_pat_r/pat_tx_r/value	/jointset/tib_pat_r/pat_tx_r/speed	/jointset/tib_pat_r/pat_ty_r/value	/jointset/tib_pat_r/pat_ty_r/speed	/jointset/ankle_r/ankle_angle_r/value	/jointset/ankle_r/ankle_angle_r/speed	/jointset/subtalar_r/subtalar_angle_r/value	/jointset/subtalar_r/subtalar_angle_r/speed	/jointset/mtp_r/mtp_angle_r/value	/jointset/mtp_r/mtp_angle_r/speed	/forceset/bifemlh_r/activation	/forceset/bifemlh_r/fiber_length	/forceset/bifemsh_r/activation	/forceset/bifemsh_r/fiber_length	/forceset/glut_max2_r/activation	/forceset/glut_max2_r/fiber_length	/forceset/vas_int_r/activation	/forceset/vas_int_r/fiber_length
      1.29390342	   -368.52355521	    -37.46233743	    364.06927454	     47.34347180	      0.00000000	      0.00000000	      0.00000000	      0.00000000	     -0.00000000	     -0.00000000	     -0.10000000	      0.00000000	     -0.10000000	      0.00000000	      0.00000000	      0.00000000	     88.28119607	      3.36440816	      4.01334455	      0.10050021	     -4.54092927	      1.27722530	   -122.11032022	     10.91923796	     -0.00455431	      0.00413068	     -0.49670258	      0.00343396	     17.64822807	      0.00928433	      0.01835932	      0.00559500	     -0.02478583	      0.00091197	     30.13530132	     -4.52540196	      0.00000000	      0.00000000	     -0.00000000	     -0.00000000	      0.05000000	      0.10000000	      0.05000000	      0.10000000	      0.05000000	      0.10000000	      0.05000000	      0.10000000
      1.32962913	   -369.66424071	    -27.10171261	    365.50906573	     34.16631782	      0.00000000	      0.00000000	      0.00000000	      0.00000000	     -0.00000000	     -0.00000000	     -0.10000000	      0.00000000	     -0.10000000	      0.00000000	     -0.00000000	     -0.00000000	     88.37797121	      2.16481454	      4.01646783	      0.07569949	     -4.50159682	      0.94481864	   -121.77286471	      8.13482584	     -0.00442666	      0.00307735	     -0.49659646	      0.00255830	     17.64851499	      0.00691682	      0.01853223	      0.00416827	     -0.02475764	      0.00067941	     29.99639858	     -3.32562289	      0.00000000	      0.00000000	     -0.00000000	     -0.00000000	      0.05000000	      0.10000000	      0.05000000	      0.10000000	      0.05000000	      0.10000000	      0.05000000	      0.10000000
      1.36535485	   -370.50366215	    -20.42264333	    366.56633707	     25.69942957	      0.00000000	      0.00000000	      0.00000000	      0.00000000	     -0.00000000	     -0.00000000	     -0.10000000	      0.00000000	     -0.10000000	      0.00000000	     -0.00000000	     -0.00000000	     88.44193723	      1.48133762	      4.01884648	      0.05869457	     -4.47210308	      0.72307595	   -121.51825073	      6.25870521	     -0.00433034	      0.00236763	     -0.49651638	      0.00196828	     17.64873149	      0.00532161	      0.01866269	      0.00320695	     -0.02473638	      0.00052272	     29.89284442	     -2.53239947	      0.00000000	      0.00000000	     -0.00000000	     -0.00000000	      0.05000000	      0.10000000	      0.05000000	      0.10000000	      0.05000000	      0.10000000	      0.05000000	      0.10000000
      1.41269504	   -371.34482364	    -15.83054687	    367.62386524	     19.88430381	      0.00000000	      0.00000000	      0.00000000	      0.00000000	     -0.00000000	     -0.00000000	     -0.10000000	      0.00000000	     -0.10000000	      0.00000000	     -0.00000000	      0.00000000	     88.49983797	      1.03133835	      4.02129796	      0.04677099	     -4.44209790	      0.56882527	   -121.25783456	      4.95010756	     -0.00423182	      0.00187260	     -0.49643449	      0.00155675	     17.64895291	      0.00420894	      0.01879613	      0.00253643	     -0.02471463	      0.00041343	     29.78802891	     -1.98193348	      0.00000000	      0.00000000	     -0.00000000	      0.00000000	      0.05000000	      0.10000000	      0.05000000	      0.10000000	      0.05000000	      0.10000000	      0.05000000	      0.10000000
      1.46003523	   -372.06391030	    -15.16724817	    368.52637674	     19.02105436	      0.00000000	      0.00000000	      0.00000000	      0.00000000	     -0.00000000	     -0.00000000	     -0.10000000	      0.00000000	     -0.10000000	      0.00000000	     -0.00000000	      0.00000000	     88.54440949	      0.89211806	      4.02344704	      0.04584511	     -4.41610202	      0.55160169	   -121.03108417	      4.82251068	     -0.00414605	      0.00182433	     -0.49636317	      0.00151662	     17.64914571	      0.00410045	      0.01891232	      0.00247105	     -0.02469569	      0.00040277	     29.69765575	     -1.91329962	      0.00000000	      0.00000000	     -0.00000000	     -0.00000000	      0.05000000	      0.10000000	      0.05000000	      0.10000000	      0.05000000	      0.10000000	      0.05000000	      0.10000000
      1.52860657	   -373.25631708	    -21.10346688	    370.01979810	     26.39563235	      0.00000000	      0.00000000	      0.00000000	      0.00000000	     -0.00000000	     -0.00000000	     -0.10000000	     -0.00000000	     -0.10000000	      0.00000000	      0.00000000	      0.00000000	     88.60831437	      1.01908916	      4.02711751	      0.06614217	     -4.37232155	      0.78214404	   -120.64684613	      6.89127554	     -0.00400069	      0.00260693	     -0.49624234	      0.00216722	     17.64947242	      0.00585947	      0.01910920	      0.00353108	     -0.02466360	      0.00057555	     29.54637064	     -2.69230985	      0.00000000	      0.00000000	     -0.00000000	      0.00000000	      0.05000000	      0.10000000	      0.05000000	      0.10000000	      0.05000000	      0.10000000	      0.05000000	      0.10000000
      1.59717791	   -375.21233985	    -38.38744436	    372.46106935	     47.80448840	      0.00000000	     -0.00000000	      0.00000000	     -0.00000000	     -0.00000000	     -0.00000000	     -0.10000000	      0.00000000	     -0.10000000	      0.00000000	      0.00000000	      0.00000000	     88.68604487	      1.19001569	      4.03342198	      0.12715754	     -4.29878318	      1.46345169	   -119.99475960	     13.06145047	     -0.00375401	      0.00494043	     -0.49603726	      0.00410783	     17.65002687	      0.01108602	      0.01944333	      0.00669230	     -0.02460914	      0.00109082	     29.29485758	     -4.97214196	      0.00000000	     -0.00000000	      0.00000000	      0.00000000	      0.05000000	      0.10000000	      0.05000000	      0.10000000	      0.05000000	      0.10000000	      0.05000000	      0.10000000
      1.63702185	   -377.08290105	    -56.82250846	    374.78570057	     70.46918481	      0.00000000	      0.00000000	      0.00000000	      0.00000000	     -0.00000000	      0.00000000	     -0.10000000	     -0.00000000	     -0.10000000	      0.00000000	      0.00000000	      0.00000000	     88.72881084	      0.83460436	      4.03976040	      0.19681708	     -4.22660621	      2.21810113	   -119.34656196	     20.04433625	     -0.00351069	      0.00746653	     -0.49583293	      0.00633348	     17.65051864	      0.01335403	      0.01977440	      0.01020511	     -0.02455519	      0.00166268	     29.05119369	     -7.43964160	      0.00000000	     -0.00000000	      0.00000000	     -0.00000000	      0.05000000	      0.10000000	      0.05000000	      0.10000000	      0.05000000	      0.10000000	      0.05000000	      0.10000000
